<svg xmlns="http://www.w3.org/2000/svg" xmlns:xlink="http://www.w3.org/1999/xlink" width="21" height="21" viewBox="0 0 21 21">
  <defs>
    <linearGradient id="linear-gradient" x1="0.5" x2="0.5" y2="1" gradientUnits="objectBoundingBox">
      <stop offset="0" stop-color="#44a8e8"/>
      <stop offset="0.527" stop-color="#87cbf8"/>
      <stop offset="1" stop-color="#7ac4f5"/>
    </linearGradient>
  </defs>
  <g id="_group" data-name=" group" transform="translate(-610 -4098)">
    <rect id="Path" width="21" height="21" transform="translate(610 4098)" fill="rgba(0,0,0,0)"/>
    <path id="Icon" d="M18.136,10.99H13.663a2.174,2.174,0,0,0,.155-.786V9.025a3.2,3.2,0,0,0-1.667-2.679l0-.005a.089.089,0,0,0-.029-.026c.344-.027.618-.039.837-.039a12.208,12.208,0,0,1,3.777.689C18.606,7.648,19,8.462,19,9.025V10.2A.829.829,0,0,1,18.136,10.99Zm-6.908,0H.864A.829.829,0,0,1,0,10.2V9.025c0-.563.394-1.378,2.268-2.061a12.208,12.208,0,0,1,3.777-.689,12.208,12.208,0,0,1,3.777.689c1.875.683,2.268,1.5,2.268,2.061V10.2A.829.829,0,0,1,11.227,10.99ZM12.954,4.7a2.481,2.481,0,0,1-2.59-2.349A2.481,2.481,0,0,1,12.954,0a2.482,2.482,0,0,1,2.591,2.349A2.482,2.482,0,0,1,12.954,4.7Zm-6.908,0A2.482,2.482,0,0,1,3.454,2.349,2.482,2.482,0,0,1,6.046,0a2.481,2.481,0,0,1,2.59,2.349A2.481,2.481,0,0,1,6.046,4.7Z" transform="translate(611 4103.01)" fill="url(#linear-gradient)"/>
  </g>
</svg>
