<svg xmlns="http://www.w3.org/2000/svg" xmlns:xlink="http://www.w3.org/1999/xlink" width="24.12" height="18.869" viewBox="0 0 24.12 18.869">
  <defs>
    <linearGradient id="linear-gradient" x1="0.5" x2="0.5" y2="1" gradientUnits="objectBoundingBox">
      <stop offset="0" stop-color="#44a8e8"/>
      <stop offset="0.527" stop-color="#87cbf8"/>
      <stop offset="1" stop-color="#7ac4f5"/>
    </linearGradient>
  </defs>
  <g id="_group" data-name=" group" transform="translate(-603.877 -4098)">
    <rect id="Path" width="17.997" height="18.869" transform="translate(610 4098)" fill="rgba(0,0,0,0)"/>
    <path id="Icon" d="M22.345,9.857H18.331a1.951,1.951,0,0,0,.139-.7V8.1a2.867,2.867,0,0,0-1.5-2.4l-.006-.007a.072.072,0,0,0-.024-.022c.336-.025.56-.035.751-.035,1.893,0,5.425.847,5.425,2.467V9.153A.743.743,0,0,1,22.345,9.857Zm-6.2,0h-9.3a.743.743,0,0,1-.775-.7V8.1c0-1.62,3.531-2.467,5.424-2.467s5.425.847,5.425,2.467V9.153A.743.743,0,0,1,16.145,9.857Zm-11.357,0H.775A.743.743,0,0,1,0,9.153V8.1c0-1.62,3.531-2.467,5.424-2.467.195,0,.427.011.752.035a.073.073,0,0,0-.024.021l-.008.009a2.868,2.868,0,0,0-1.5,2.4V9.153a1.933,1.933,0,0,0,.139.7ZM17.7,4.214a2.226,2.226,0,0,1-2.324-2.106A2.226,2.226,0,0,1,17.7,0,2.227,2.227,0,0,1,20.02,2.107,2.226,2.226,0,0,1,17.7,4.214Zm-6.2,0A2.226,2.226,0,0,1,9.171,2.107,2.226,2.226,0,0,1,11.5,0a2.227,2.227,0,0,1,2.325,2.107A2.226,2.226,0,0,1,11.5,4.214Zm-6.567,0A2.226,2.226,0,0,1,2.6,2.107,2.227,2.227,0,0,1,4.929,0,2.227,2.227,0,0,1,7.254,2.107,2.226,2.226,0,0,1,4.929,4.214Z" transform="translate(603.877 4102.509)" fill="url(#linear-gradient)"/>
  </g>
</svg>
