<svg xmlns="http://www.w3.org/2000/svg" xmlns:xlink="http://www.w3.org/1999/xlink" width="24" height="24" viewBox="0 0 24 24">
  <defs>
    <linearGradient id="linear-gradient" x1="0.5" x2="0.5" y2="1" gradientUnits="objectBoundingBox">
      <stop offset="0" stop-color="#44a8e8"/>
      <stop offset="0.527" stop-color="#87cbf8"/>
      <stop offset="1" stop-color="#7ac4f5"/>
    </linearGradient>
  </defs>
  <g id="_notifications" data-name=" notifications" transform="translate(-440 -4098)">
    <rect id="Path" width="24" height="24" transform="translate(440 4098)" fill="rgba(0,0,0,0)"/>
    <path id="Icon" d="M452,4120a2,2,0,0,1-2-2h4A2,2,0,0,1,452,4120Zm6.58-3H445.41a.979.979,0,0,1-.919-.615.99.99,0,0,1,.219-1.1L446,4114v-5a7.094,7.094,0,0,1,1.174-4.06,5.523,5.523,0,0,1,3.326-2.261V4102a1.5,1.5,0,1,1,3,0v.679a5.529,5.529,0,0,1,3.322,2.265A7.086,7.086,0,0,1,458,4109v5l1.289,1.29a1,1,0,0,1-.709,1.71Z" fill="url(#linear-gradient)"/>
  </g>
</svg>
