<svg xmlns="http://www.w3.org/2000/svg" xmlns:xlink="http://www.w3.org/1999/xlink" width="24" height="24" viewBox="0 0 24 24">
  <defs>
    <linearGradient id="linear-gradient" x1="0.5" x2="0.5" y2="1" gradientUnits="objectBoundingBox">
      <stop offset="0" stop-color="#44a8e8"/>
      <stop offset="0.527" stop-color="#87cbf8"/>
      <stop offset="1" stop-color="#7ac4f5"/>
    </linearGradient>
  </defs>
  <g id="_settings" data-name=" settings" transform="translate(-576 -418)">
    <rect id="Path" width="24" height="24" transform="translate(576 418)" fill="rgba(0,0,0,0)"/>
    <path id="Icon" d="M590,440h-4a.488.488,0,0,1-.49-.42l-.381-2.65a7.364,7.364,0,0,1-1.689-.98l-2.49,1a.506.506,0,0,1-.174.03.492.492,0,0,1-.436-.251l-2-3.46a.5.5,0,0,1,.12-.64l2.11-1.65a6.878,6.878,0,0,1,0-1.96l-2.11-1.651a.49.49,0,0,1-.12-.64l2-3.46a.487.487,0,0,1,.428-.255.5.5,0,0,1,.182.035l2.49,1a7.629,7.629,0,0,1,1.689-.979l.381-2.65A.488.488,0,0,1,586,420h4a.488.488,0,0,1,.49.42l.38,2.651a7.373,7.373,0,0,1,1.69.979l2.49-1a.509.509,0,0,1,.173-.03.491.491,0,0,1,.436.25l2,3.46a.5.5,0,0,1-.121.64l-2.11,1.651a6.878,6.878,0,0,1,0,1.96l2.11,1.65a.5.5,0,0,1,.121.64l-2,3.46a.487.487,0,0,1-.428.255.5.5,0,0,1-.182-.035l-2.49-1a7.649,7.649,0,0,1-1.69.98l-.38,2.65A.488.488,0,0,1,590,440Zm-2-13.5a3.5,3.5,0,1,0,3.5,3.5A3.5,3.5,0,0,0,588,426.5Z" fill="url(#linear-gradient)"/>
  </g>
</svg>
